<?xml version="1.0" encoding="UTF-8" standalone="no"?>
<svg
   width="1024"
   height="1024"
   viewBox="0 0 1024 1024"
   version="1.1"
   id="svg5"
   sodipodi:docname="icon.svg"
   inkscape:version="1.4.4 (dcaf3e7d9e, 2026-05-05)"
   xmlns:inkscape="http://www.inkscape.org/namespaces/inkscape"
   xmlns:sodipodi="http://sodipodi.sourceforge.net/DTD/sodipodi-0.dtd"
   xmlns="http://www.w3.org/2000/svg"
   xmlns:svg="http://www.w3.org/2000/svg">
  <defs
     id="defs5" />
  <sodipodi:namedview
     id="namedview5"
     pagecolor="#ffffff"
     bordercolor="#000000"
     borderopacity="0.25"
     inkscape:showpageshadow="2"
     inkscape:pageopacity="0.0"
     inkscape:pagecheckerboard="0"
     inkscape:deskcolor="#d1d1d1"
     inkscape:zoom="0.75268202"
     inkscape:cx="268.37362"
     inkscape:cy="587.23337"
     inkscape:window-width="2560"
     inkscape:window-height="1301"
     inkscape:window-x="0"
     inkscape:window-y="0"
     inkscape:window-maximized="1"
     inkscape:current-layer="svg5" />
  <path
     fill="#23272e"
     d="m 398.4886,3.9771427 310.89785,0.08341 73.35811,-0.1299003 c 23.59946,-0.073838 49.63831,-1.115775 72.59511,3.6536162 40.66836,8.4503544 76.12293,25.9786874 105.91385,55.2240254 33.02475,32.529764 53.85668,75.428306 58.99938,121.497776 1.0733,9.5087 1.1499,19.94858 1.2087,29.51745 l -0.1025,436.95445 -0.074,119.58482 c 0,27.19975 1.7243,59.13745 -3.3582,85.54549 -7.563,39.80691 -26.74719,76.48255 -55.13246,105.39835 -35.79094,36.02613 -83.64484,57.53897 -134.34696,60.39547 -20.87156,1.3796 -48.22446,0.2461 -69.87952,0.3199 l -127.36106,0.059 -297.9926,-0.056 -81.47756,0.1613 c -14.57481,0.036 -29.19338,0.1641 -43.76135,0.018 -52.33341,-0.5251 -105.80583,-21.651 -143.047554,-58.64658 C 36.311589,935.29786 16.681606,899.2143 8.5047254,859.83537 2.6769888,831.76597 4.0703401,796.1856 4.0238495,766.96351 L 4.3027933,644.28432 3.8939492,207.05503 C 3.48784,153.55936 24.535787,102.13253 62.32993,64.271381 95.429888,31.066136 138.91366,10.212356 185.52872,5.1872663 208.87795,2.8066728 248.9515,4.0222659 274.10703,4.026368 Z"
     id="path1"
     style="stroke-width:1.36737" />
  <path
     fill="#05f7fd"
     d="m 492.63075,421.40689 c -29.40942,0.12307 -61.75733,4.79264 -85.92698,-14.71975 -30.77816,-24.8465 -25.49874,-58.6657 -25.53293,-93.87004 l -10e-4,-73.52356 c 0.0602,-22.9062 3.58525,-40.16379 20.58578,-57.12467 8.75938,-8.76895 19.74211,-14.98639 31.76814,-17.9823 12.57298,-3.08342 41.90856,-2.06746 56.56815,-2.06336 l 76.76286,0.10802 c 23.20019,0.15041 40.29096,3.51825 57.56497,20.49963 25.6847,25.24988 18.36926,61.29926 19.31958,93.79621 0.73428,25.08852 -0.53874,50.09911 -0.0684,75.1767 0.14494,19.82415 -5.8168,36.88485 -20.39298,50.63376 -18.92852,17.85651 -35.45047,18.95587 -59.98111,18.98322 l -31.05574,-0.0479 z"
     id="path2"
     style="stroke-width:1.36737" />
  <path
     fill="#ffffff"
     d="m 714.66724,599.3525 c 30.57032,-0.44987 65.73501,-4.12536 88.34723,18.94083 18.41165,18.78221 20.42716,34.84882 20.51467,59.48202 l 0.004,79.37453 c 0.004,11.46131 0.696,39.41038 -1.58478,49.20076 -2.9084,12.46085 -9.23112,23.86473 -18.26124,32.93314 -8.34917,8.31362 -18.76034,14.25621 -30.16558,17.21657 -14.46132,3.63311 -49.16931,2.46947 -65.98114,2.44076 l -71.75144,0.0492 C 615.14722,858.82762 599.55235,853.1038 584.40598,838.59462 557.9993,813.30099 566.209,776.6527 565.09733,743.70315 c 0.0547,-24.29955 -0.0916,-48.87668 -0.0123,-73.14889 0.0697,-21.02607 5.37514,-37.50837 20.47912,-52.29238 20.20975,-19.78177 43.61915,-19.29225 69.81661,-18.55387 5.4941,0.15452 11.43533,0.0656 16.97455,0.0779 11.7088,-10e-4 31.35109,0.55926 42.31194,-0.43345 z"
     id="path3"
     style="stroke-width:1.36737" />
  <path
     fill="#ffffff"
     d="m 391.75977,599.71212 c 16.46315,0.24749 32.17971,5.17413 44.87302,15.90936 13.2512,11.27124 21.49918,27.33102 22.94039,44.66655 1.299,15.98868 0.18596,45.58543 0.2557,62.76918 l 0.37329,44.15516 c 0.11076,11.87699 0.79034,27.20659 -1.56564,38.49834 -2.40521,11.08801 -7.56703,21.39116 -15.00827,29.95637 -11.82913,13.68055 -29.39985,22.3784 -47.55307,22.8228 -34.53843,0.84503 -69.16438,0.31176 -103.72195,0.4649 -11.92622,0.052 -27.04661,0.69599 -38.49151,-1.67913 -10.552,-2.23839 -20.34648,-7.16913 -28.42901,-14.31364 -12.95585,-11.39021 -23.03884,-28.96913 -23.38342,-46.55216 -0.7206,-36.84109 -0.24339,-73.74917 -0.33501,-110.59846 -0.026,-10.58619 -0.56199,-22.93492 1.62034,-33.19841 2.38196,-11.41072 7.78855,-21.96956 15.65367,-30.57442 11.95082,-13.26077 28.64643,-21.2763 46.46738,-22.30867 26.39163,0.3104 53.32201,0.0903 79.74783,0.0615 13.28674,-0.0137 33.80005,0.70967 46.55626,-0.0793 z"
     id="path4"
     style="stroke-width:1.36737" />
  <path
     fill="#7f8098"
     d="m 492.63075,421.40689 39.61001,-0.134 0.20237,69.04405 113.08571,-0.0451 c 16.70108,0 33.90398,-0.56063 50.50523,0.68505 6.06429,0.45533 14.19195,9.30086 15.17099,15.25439 1.51778,9.22292 1.01322,19.17875 1.01185,28.56849 l -0.0383,45.42955 c -0.0109,5.24797 -0.33363,11.54882 0.003,16.79816 0.10255,1.59025 0.82589,1.9485 2.48588,2.34504 -10.96085,0.99271 -30.60314,0.43209 -42.31194,0.43345 0.95716,-20.36836 0.23109,-48.193 0.30903,-69.19309 l -319.50682,0.0861 c -0.0451,22.8392 0.0465,45.67977 0.27484,68.51761 9.77397,-0.0738 28.88708,-0.6454 38.32742,0.5155 -12.75621,0.78897 -33.26952,0.0656 -46.55626,0.0793 -26.42582,0.0287 -53.3562,0.24887 -79.74783,-0.0615 6.2817,-1.25798 39.63325,-0.54695 47.68023,-0.48815 0.73155,-29.8251 -0.83956,-60.36397 0.84504,-90.16446 0.43346,-7.67643 8.73614,-17.20427 16.5493,-18.01102 12.75347,-1.31678 26.50239,-0.67548 39.49241,-0.68505 l 79.79159,-0.0424 c 11.47908,-0.003 31.27178,0.60438 42.23947,-0.24203 l 0.67958,-0.0574 z"
     id="path5"
     style="stroke-width:1.36737" />
</svg>
